<svg xmlns="http://www.w3.org/2000/svg" viewBox="0 0 50 50">
  <style>
    path { fill: #000; }
    @media (prefers-color-scheme: dark) { path { fill: #fff; } }
  </style>
  <path transform="translate(3 2.5)" d="M33.78 0V8.89252C29.1415 8.89252 24.9123 9.86817 21.2246 11.6128C21.9233 11.5053 22.8865 11.4226 23.7464 11.3689C24.1723 11.3441 24.7097 11.3275 25.243 11.3275C26.0243 11.3358 26.8057 11.3771 27.5829 11.4805H27.5788C37.203 12.7869 43.2967 20.774 43.2967 30.3073C43.2967 39.0221 36.4382 45 28.294 45C22.469 45 17.6238 40.593 17.6238 34.3298C17.6238 28.5048 22.0308 23.6638 28.294 23.6638V29.5425H34.0156V34.7928H28.294V29.5425C25.5117 29.6169 23.5025 31.655 23.5025 34.334C23.5025 37.2113 25.5696 39.1295 28.294 39.1295C33.4864 39.1295 37.418 35.4915 37.418 30.3156C37.418 23.7878 33.2012 18.4754 26.7726 17.3799C26.1029 17.2641 25.4249 17.2186 24.7469 17.2145C24.4038 17.2104 24.0606 17.2145 23.7258 17.2435C13.0638 18.0868 5.87873 26.4378 5.87873 36.802H0C0 21.8241 10.0542 10.5751 19.1865 6.14331L0 6.23014V0H33.78Z"/>
</svg>
